<?xml version="1.0" encoding="UTF-8"?>
<!DOCTYPE svg PUBLIC "-//W3C//DTD SVG 1.1//EN" "http://www.w3.org/Graphics/SVG/1.1/DTD/svg11.dtd">
<!-- Creator: CorelDRAW X7 -->
<svg xmlns="http://www.w3.org/2000/svg" xml:space="preserve" width="11in" height="8.5in" version="1.1" style="shape-rendering:geometricPrecision; text-rendering:geometricPrecision; image-rendering:optimizeQuality; fill-rule:evenodd; clip-rule:evenodd"
viewBox="0 0 11000 8500"
 xmlns:xlink="http://www.w3.org/1999/xlink">
 <defs>
  <style type="text/css">
   <![CDATA[
    .fil10 {fill:none}
    .fil3 {fill:#120A5C}
    .fil6 {fill:#1CBBFF}
    .fil5 {fill:gray}
    .fil8 {fill:#999999}
    .fil9 {fill:#B3B3B3}
    .fil7 {fill:#FF6600}
    .fil4 {fill:#FF6600}
    .fil0 {fill:#120A5C;fill-rule:nonzero}
    .fil2 {fill:gray;fill-rule:nonzero}
    .fil1 {fill:#FF6600;fill-rule:nonzero}
   ]]>
  </style>
 </defs>
 <g id="Layer_x0020_1">
  <metadata id="CorelCorpID_0Corel-Layer"/>
  <g id="_1646097620768">
   <g>
    <polygon class="fil0" points="1261,5301 1525,5301 1525,6840 1239,6840 621,5787 621,6840 357,6840 357,5301 643,5301 1261,6354 "/>
    <path id="1" class="fil0" d="M2514 6424l-576 0c15,34 36,64 64,90 31,31 65,54 103,70 38,15 79,23 121,23 60,0 114,-14 161,-42l275 110c-53,62 -117,110 -192,144 -75,34 -156,52 -244,52 -80,0 -156,-15 -226,-45 -71,-30 -132,-72 -185,-125 -53,-52 -94,-114 -124,-184 -30,-71 -45,-145 -45,-225 0,-80 15,-156 45,-226 30,-70 71,-132 124,-185 53,-53 114,-94 185,-124 70,-30 146,-45 226,-45 81,0 156,15 227,45 70,30 132,71 184,124 53,53 95,115 125,185 30,70 45,146 45,226 0,47 -5,91 -16,132l-277 0zm-288 -448c-85,0 -160,31 -224,92 -28,28 -49,59 -64,92l576 0c-14,-33 -36,-64 -64,-92 -61,-61 -136,-92 -224,-92z"/>
    <polygon id="2" class="fil0" points="3763,5743 4053,5743 3543,6842 3253,6842 2743,5743 3033,5743 3398,6530 "/>
    <path id="3" class="fil0" d="M4860 6424l-576 0c15,34 36,64 64,90 31,31 65,54 103,70 38,15 79,23 121,23 60,0 114,-14 161,-42l275 110c-53,62 -117,110 -192,144 -75,34 -156,52 -244,52 -80,0 -156,-15 -226,-45 -71,-30 -132,-72 -185,-125 -53,-52 -94,-114 -124,-184 -30,-71 -45,-145 -45,-225 0,-80 15,-156 45,-226 30,-70 71,-132 124,-185 53,-53 114,-94 185,-124 70,-30 146,-45 226,-45 81,0 156,15 227,45 70,30 132,71 184,124 53,53 94,115 125,185 30,70 45,146 45,226 0,47 -6,91 -16,132l-277 0zm-288 -448c-85,0 -160,31 -224,92 -28,28 -49,59 -64,92l576 0c-14,-33 -36,-64 -64,-92 -61,-61 -136,-92 -224,-92z"/>
    <path id="4" class="fil0" d="M5537 5826c41,-33 88,-61 140,-83 52,-22 111,-33 177,-33l0 264c-88,0 -163,30 -224,92 -62,64 -93,139 -93,224l0 552 -263 0 0 -552 0 -549 263 0 0 85z"/>
    <path id="5" class="fil1" d="M7749 6635c-73,74 -158,131 -255,173 -97,42 -201,63 -312,63 -110,0 -214,-21 -311,-63 -98,-42 -183,-99 -255,-171 -73,-73 -130,-158 -172,-256 -41,-97 -62,-201 -62,-311 0,-110 21,-213 62,-311 42,-97 99,-182 172,-255 72,-72 157,-130 255,-171 97,-42 201,-63 311,-63 111,0 215,21 312,63 97,41 182,99 255,172l-187 187c-51,-51 -109,-90 -173,-117 -65,-28 -134,-41 -207,-41 -72,0 -140,13 -204,41 -65,27 -123,66 -174,117 -51,51 -91,109 -118,174 -27,64 -40,133 -40,204 0,72 13,141 40,206 27,65 67,123 118,175 51,51 109,90 174,116 64,27 132,40 204,40 73,0 142,-13 207,-40 64,-26 122,-65 173,-116l187 184z"/>
    <polygon id="6" class="fil1" points="8112,6842 7848,6842 7848,5303 8112,5303 "/>
    <path id="7" class="fil1" d="M8813 5976c-88,0 -162,31 -224,92 -61,62 -92,136 -92,224 0,87 31,161 92,222 29,31 64,54 102,70 39,15 80,23 122,23 43,0 83,-8 121,-23 38,-16 73,-39 104,-70 61,-61 92,-135 92,-222 0,-88 -31,-162 -92,-224 -65,-61 -140,-92 -225,-92zm0 -264c81,0 156,15 227,45 70,30 132,71 185,124 52,53 94,115 124,185 30,70 45,146 45,226 0,80 -15,154 -45,225 -30,70 -72,132 -124,184 -53,53 -115,95 -185,125 -71,30 -146,45 -227,45 -80,0 -156,-15 -226,-45 -70,-30 -132,-72 -185,-125 -53,-52 -94,-114 -124,-184 -30,-71 -45,-145 -45,-225 0,-80 15,-156 45,-226 30,-70 71,-132 124,-185 53,-53 115,-94 185,-124 70,-30 146,-45 226,-45z"/>
    <path id="8" class="fil1" d="M10643 6732c0,79 -15,154 -45,224 -30,71 -72,132 -125,185 -52,53 -114,95 -184,125 -71,31 -146,47 -227,47 -66,0 -128,-11 -187,-31 -58,-21 -113,-50 -162,-88l191 -189c47,29 100,44 158,44 90,0 164,-32 224,-95 62,-61 93,-135 93,-222l0 -442c0,-85 -31,-160 -93,-224 -61,-62 -136,-92 -224,-92 -85,0 -160,30 -224,92 -62,64 -92,139 -92,224 0,88 30,163 92,224 64,62 139,93 224,93 44,0 84,-8 119,-22l99 246c-66,26 -137,40 -213,40l-5 0c-79,0 -154,-15 -224,-45 -70,-30 -132,-72 -185,-125 -53,-52 -94,-114 -125,-184 -31,-71 -46,-146 -46,-227 0,-80 13,-156 39,-226 27,-71 64,-132 111,-185 48,-53 105,-94 172,-124 67,-30 139,-45 219,-45 76,0 143,11 202,34 59,23 110,51 154,84l0 -85 264 0 0 989z"/>
    <path class="fil2" d="M1979 7659l0 -100 257 0 0 236c-25,25 -61,46 -108,65 -48,18 -96,27 -144,27 -62,0 -116,-13 -162,-39 -46,-26 -80,-63 -104,-111 -23,-49 -34,-101 -34,-158 0,-62 13,-117 38,-165 26,-48 64,-85 114,-110 38,-20 85,-30 141,-30 74,0 131,16 172,47 41,31 68,73 80,128l-119 22c-8,-29 -24,-52 -47,-69 -23,-17 -51,-25 -86,-25 -52,0 -93,16 -124,50 -31,33 -46,82 -46,147 0,70 15,123 46,158 32,35 72,53 123,53 25,0 50,-5 75,-15 25,-10 47,-22 65,-36l0 -75 -137 0z"/>
    <path id="1" class="fil2" d="M2975 7285l120 0 0 321c0,51 1,83 4,98 5,25 17,44 36,59 19,15 45,22 78,22 34,0 59,-7 76,-21 17,-14 27,-31 31,-51 3,-20 5,-54 5,-100l0 -328 120 0 0 311c0,71 -3,121 -10,151 -6,29 -18,54 -36,74 -17,20 -40,36 -69,48 -29,12 -67,18 -113,18 -57,0 -99,-6 -128,-19 -29,-13 -52,-30 -69,-51 -17,-21 -28,-43 -34,-66 -7,-34 -11,-84 -11,-150l0 -316z"/>
    <polygon id="2" class="fil2" points="4332,7877 4332,7385 4157,7385 4157,7285 4626,7285 4626,7385 4452,7385 4452,7877 "/>
    <polygon id="3" class="fil2" points="5464,7877 5464,7385 5289,7385 5289,7285 5759,7285 5759,7385 5584,7385 5584,7877 "/>
    <polygon id="4" class="fil2" points="6464,7877 6464,7285 6902,7285 6902,7385 6584,7385 6584,7516 6879,7516 6879,7616 6584,7616 6584,7777 6913,7777 6913,7877 "/>
    <path id="5" class="fil2" d="M7643 7877l0 -592 251 0c63,0 109,6 138,16 29,11 52,30 69,57 17,27 26,58 26,93 0,44 -13,81 -39,110 -26,29 -65,47 -117,55 26,15 47,31 64,49 17,18 39,50 68,96l72 116 -143 0 -86 -130c-30,-45 -52,-74 -63,-86 -11,-12 -23,-20 -36,-25 -13,-4 -33,-6 -60,-6l-25 0 0 247 -119 0zm119 -342l89 0c57,0 93,-2 107,-7 14,-5 26,-13 34,-25 8,-12 12,-27 12,-44 0,-20 -6,-36 -16,-49 -11,-12 -26,-20 -45,-23 -10,-1 -39,-2 -87,-2l-94 0 0 150z"/>
    <path id="6" class="fil2" d="M8836 7685l116 -12c7,39 21,68 43,86 21,18 50,28 86,28 38,0 67,-9 86,-25 20,-16 30,-35 30,-57 0,-14 -4,-26 -13,-36 -8,-9 -22,-18 -42,-25 -14,-5 -46,-14 -96,-26 -63,-16 -108,-35 -134,-59 -36,-32 -54,-72 -54,-119 0,-30 9,-59 25,-85 18,-26 42,-46 74,-60 32,-14 71,-21 116,-21 74,0 130,17 167,50 38,33 57,76 59,131l-120 4c-5,-30 -16,-52 -32,-65 -17,-14 -42,-20 -75,-20 -35,0 -62,7 -81,21 -13,9 -19,21 -19,37 0,14 6,26 18,36 15,13 51,26 109,40 58,13 101,28 129,42 27,15 49,35 65,60 16,26 23,57 23,94 0,34 -9,66 -28,96 -19,29 -45,51 -80,66 -34,14 -77,21 -128,21 -75,0 -133,-17 -173,-51 -40,-35 -63,-85 -71,-151z"/>
   </g>
   <g>
    <g>
     <path class="fil3" d="M5335 2855c185,-2 372,2 558,-2 -70,75 -135,155 -181,247 -60,132 -70,279 -71,421 2,301 1,603 0,904 2,123 9,250 57,365 39,114 128,200 201,294 -333,0 -665,-3 -998,1 -339,-499 -675,-1002 -1014,-1502 -61,-89 -111,-187 -192,-259 -4,587 4,1174 -5,1760 -197,-1 -395,-1 -592,0 -4,-743 -1,-1487 -2,-2229 346,3 692,-6 1037,4 393,598 800,1186 1201,1780 1,-595 -1,-1190 1,-1784z"/>
     <path class="fil4" d="M5855 3395c-2,-302 292,-546 584,-540 358,0 717,0 1075,0l47 49c135,142 315,329 497,518 -447,0 -894,0 -1341,1 -125,-6 -258,93 -260,224 -3,196 0,392 -1,588 -13,172 157,311 324,274 637,-2 1275,0 1913,-1 9,209 -131,395 -305,496 -109,68 -240,75 -364,80 -529,-3 -1058,2 -1587,-3 -296,-5 -591,-257 -582,-564 0,-374 -1,-748 0,-1122z"/>
     <g>
      <path class="fil5" d="M7882 3128c176,184 479,498 637,665 158,168 171,188 182,206 12,19 22,36 27,62 5,26 5,62 -5,91 -9,30 -27,53 -36,65 -9,12 -9,12 -9,12 0,0 0,0 126,-44 126,-44 378,-132 504,-176 126,-44 126,-44 137,-54 11,-10 34,-30 51,-57 16,-28 27,-63 30,-101 3,-38 -3,-79 -16,-106 -14,-27 -36,-39 -211,-182 -176,-143 -506,-417 -671,-554l-121 -101 -879 0c2,3 4,5 6,8 24,27 72,81 248,266z"/>
      <path class="fil6" d="M9342 2867c-18,61 -41,138 -52,196 -12,58 -13,97 -8,134 6,37 18,73 45,102 28,29 71,53 121,57 49,3 104,-13 142,-33 37,-19 57,-42 69,-80 11,-39 14,-93 -2,-147 -15,-53 -49,-105 -83,-151 -33,-46 -68,-85 -98,-120 -30,-35 -55,-65 -69,-83 -14,-17 -17,-20 -18,-22 -2,-2 -2,-2 -8,20 -7,22 -21,67 -39,127z"/>
      <path class="fil6" d="M8979 2840c-10,36 -24,81 -30,115 -7,34 -8,57 -5,79 3,22 10,43 27,60 16,17 42,31 71,33 29,3 61,-7 83,-19 22,-11 34,-24 41,-47 7,-23 8,-55 -1,-86 -9,-32 -29,-63 -49,-89 -20,-27 -40,-50 -58,-71 -17,-20 -32,-39 -40,-49 -9,-10 -10,-12 -11,-13 -1,-1 -1,-1 -5,12 -4,13 -12,39 -23,75z"/>
      <path class="fil6" d="M9119 2498c-9,28 -19,63 -25,90 -5,26 -5,44 -3,62 3,17 8,33 21,46 12,14 32,25 55,27 23,1 48,-6 66,-15 17,-9 26,-20 32,-37 5,-18 6,-43 -1,-68 -7,-24 -23,-49 -38,-70 -16,-21 -32,-39 -46,-55 -13,-16 -25,-30 -32,-38 -6,-8 -7,-10 -8,-10 -1,-1 -1,-1 -4,9 -3,10 -9,31 -17,59z"/>
     </g>
    </g>
    <g>
     <path class="fil7" d="M2235 3739c434,119 533,129 531,453l1 893 -387 -1 1 -891 -304 -96c-114,-31 -202,-42 -220,-167l-4 -759 379 -1 3 569z"/>
     <polygon class="fil7" points="2766,2433 2584,2581 2584,2887 1514,2887 1514,2433 1332,2433 1332,3083 2766,3083 "/>
     <polygon class="fil5" points="5872,2071 5872,2328 4090,879 2309,2328 2309,2081 4097,613 "/>
     <polygon class="fil8" points="5872,2421 5872,2679 4090,1229 2309,2679 2309,2431 4097,964 "/>
     <g>
      <rect class="fil9" x="4134" y="1937" width="279" height="279"/>
      <rect class="fil9" x="4134" y="1937" width="279" height="279"/>
      <rect class="fil9" x="4134" y="2276" width="279" height="279"/>
      <rect class="fil9" x="4134" y="2276" width="279" height="279"/>
      <rect class="fil9" x="3768" y="1937" width="279" height="279"/>
      <rect class="fil9" x="3768" y="1937" width="279" height="279"/>
      <rect class="fil9" x="3768" y="2276" width="279" height="279"/>
      <rect class="fil9" x="3768" y="2276" width="279" height="279"/>
     </g>
    </g>
   </g>
  </g>
  <rect class="fil10" x="231" y="446" width="10538" height="7607"/>
 </g>
</svg>
